{"accessors" : [{"bufferView" : 0, "byteOffset" : 0, "componentType" : 5123, "count" : 2706, "type" : "SCALAR", "max" : [1319], "min" : [0]}, {"bufferView" : 1, "byteOffset" : 0, "componentType" : 5126, "count" : 1320, "type" : "VEC3", "max" : [0.6646410226821899, 0.03999999910593033, 0.3700000047683716], "min" : [5.414335713407566E-16, -3.652420637527236E-14, 0], "name" : "POSITION"}, {"bufferView" : 1, "byteOffset" : 12, "componentType" : 5126, "count" : 1320, "type" : "VEC2", "max" : [25.681909561157227, 21.95899200439453], "min" : [-25.681909561157227, -27.37531280517578], "name" : "TEXCOORD_0"}, {"bufferView" : 0, "byteOffset" : 5412, "componentType" : 5123, "count" : 264, "type" : "SCALAR", "max" : [105], "min" : [0]}, {"bufferView" : 2, "byteOffset" : 0, "componentType" : 5126, "count" : 106, "type" : "VEC3", "max" : [0.20000000298023224, 1.1032819747924805, 2.1001293659210205], "min" : [-3.2845808295434153E-09, 0, 0], "name" : "POSITION"}, {"bufferView" : 2, "byteOffset" : 12, "componentType" : 5126, "count" : 106, "type" : "VEC2", "max" : [1.880046010017395, 0.24792498350143433], "min" : [-0.708184003829956, -0.9903939962387085], "name" : "TEXCOORD_0"}, {"bufferView" : 0, "byteOffset" : 5940, "componentType" : 5123, "count" : 60, "type" : "SCALAR", "max" : [31], "min" : [0]}, {"bufferView" : 3, "byteOffset" : 0, "componentType" : 5126, "count" : 32, "type" : "VEC3", "max" : [0.20000000298023224, 1.156999945640564, 1.9897234439849854], "min" : [0, 0, 0], "name" : "POSITION"}, {"bufferView" : 3, "byteOffset" : 12, "componentType" : 5126, "count" : 32, "type" : "VEC2", "max" : [2.4991369247436523, 0.719467043876648], "min" : [1.0016809701919556, -1.8993170261383057], "name" : "TEXCOORD_0"}, {"bufferView" : 0, "byteOffset" : 6060, "componentType" : 5123, "count" : 108, "type" : "SCALAR", "max" : [53], "min" : [0]}, {"bufferView" : 4, "byteOffset" : 0, "componentType" : 5126, "count" : 54, "type" : "VEC3", "max" : [0.29499998688697815, 1.4269999265670776, 1.9649990797042847], "min" : [0, 0, 0], "name" : "POSITION"}, {"bufferView" : 4, "byteOffset" : 12, "componentType" : 5126, "count" : 54, "type" : "VEC2", "max" : [0.9761070013046265, -0.011245965957641602], "min" : [-0.8843100070953369, -0.9934159517288208], "name" : "TEXCOORD_0"}, {"bufferView" : 0, "byteOffset" : 6276, "componentType" : 5123, "count" : 168, "type" : "SCALAR", "max" : [69], "min" : [0]}, {"bufferView" : 5, "byteOffset" : 0, "componentType" : 5126, "count" : 70, "type" : "VEC3", "max" : [0.20000000298023224, 1.1110000610351562, 1.9897234439849854], "min" : [0, 0, 0], "name" : "POSITION"}, {"bufferView" : 5, "byteOffset" : 12, "componentType" : 5126, "count" : 70, "type" : "VEC2", "max" : [2.490852117538452, 0.5708490014076233], "min" : [1.3110710382461548, -1.8968229293823242], "name" : "TEXCOORD_0"}], "asset" : {"generator" : "Aspose.3D 24.6.0", "version" : "2.0"}, "buffers" : [{"uri" : "data:application/octet-stream;base64,", "byteLength" : 38276}], "bufferViews" : [{"buffer" : 0, "byteOffset" : 0, "byteLength" : 6612, "target" : 34963}, {"buffer" : 0, "byteOffset" : 6616, "byteLength" : 26400, "byteStride" : 20, "target" : 34962}, {"buffer" : 0, "byteOffset" : 33020, "byteLength" : 2120, "byteStride" : 20, "target" : 34962}, {"buffer" : 0, "byteOffset" : 35144, "byteLength" : 640, "byteStride" : 20, "target" : 34962}, {"buffer" : 0, "byteOffset" : 35788, "byteLength" : 1080, "byteStride" : 20, "target" : 34962}, {"buffer" : 0, "byteOffset" : 36872, "byteLength" : 1400, "byteStride" : 20, "target" : 34962}], "images" : [{"uri" : "Tombst0.png"}], "materials" : [{"name" : "Metal", "pbrMetallicRoughness" : {"baseColorFactor" : [0.7843137254901961, 0.7843137254901961, 0.7843137254901961, 1], "metallicFactor" : 1, "roughnessFactor" : 1}, "emissiveFactor" : [0, 0, 0], "alphaMode" : "OPAQUE", "doubleSided" : false}, {"name" : "_1", "pbrMetallicRoughness" : {"baseColorFactor" : [1, 1, 1, 1], "baseColorTexture" : {"index" : 0, "texCoord" : 0}, "metallicFactor" : 1, "roughnessFactor" : 1}, "emissiveFactor" : [0, 0, 0], "alphaMode" : "OPAQUE", "doubleSided" : false}], "meshes" : [{"primitives" : [{"attributes" : {"POSITION" : 1, "TEXCOORD_0" : 2}, "indices" : 0, "material" : 0, "mode" : 4}], "name" : "Fence"}, {"primitives" : [{"attributes" : {"POSITION" : 4, "TEXCOORD_0" : 5}, "indices" : 3, "material" : 1, "mode" : 4}], "name" : "Tombstone_"}, {"primitives" : [{"attributes" : {"POSITION" : 7, "TEXCOORD_0" : 8}, "indices" : 6, "material" : 1, "mode" : 4}], "name" : "Tombstone2"}, {"primitives" : [{"attributes" : {"POSITION" : 10, "TEXCOORD_0" : 11}, "indices" : 9, "material" : 1, "mode" : 4}], "name" : "Tombstone3"}, {"primitives" : [{"attributes" : {"POSITION" : 13, "TEXCOORD_0" : 14}, "indices" : 12, "material" : 1, "mode" : 4}], "name" : "Tombstone4"}], "nodes" : [{"matrix" : [-3.101824352924609E-13, 0, -5.5, 0, -5.5, 0, 3.101824352924609E-13, 0, 0, 5.5, 0, 0, 33.562992095947266, 0, 141.25050354003906, 1], "mesh" : 0, "name" : "Fence"}, {"matrix" : [-0.9999985694885254, 0, -0.0016963537782430649, 0, -0.0016963537782430649, 0, 0.9999985694885254, 0, 0, 1, 0, 0, 7.875316143035889, 0, -0.7599089741706848, 1], "mesh" : 1, "name" : "Tombstone_"}, {"matrix" : [-1, 0, 0, 0, 0, 0, 1, 0, 0, 1, 0, 0, 7.874015808105469, 0, 46.22047424316406, 1], "mesh" : 2, "name" : "Tombstone2"}, {"matrix" : [-1, 0, 0, 0, 0, 0, 1, 0, 0, 1, 0, 0, 11.61417293548584, -5.218048215738236E-15, 101.37105560302734, 1], "mesh" : 3, "name" : "Tombstone3"}, {"matrix" : [-1, 0, 0, 0, 0, 0, 1, 0, 0, 1, 0, 0, 7.874015808105469, 0, 162.44094848632812, 1], "mesh" : 4, "name" : "Tombstone4"}], "samplers" : [{"magFilter" : 9729, "minFilter" : 9729, "wrapS" : 10497, "wrapT" : 10497}], "scene" : 0, "scenes" : [{"nodes" : [0, 1, 2, 3, 4]}], "textures" : [{"sampler" : 0, "source" : 0, "name" : ""}]}