{
  "accessors": [
    {
      "bufferView": 2,
      "componentType": 5126,
      "count": 14946,
      "max": [
        -200.746826171875,
        59.538963317871094,
        -59.69150924682617
      ],
      "min": [
        -290.746826171875,
        9.539722442626953,
        -149.69151306152344
      ],
      "type": "VEC3"
    },
    {
      "bufferView": 2,
      "byteOffset": 179352,
      "componentType": 5126,
      "count": 14946,
      "max": [
        1.0,
        1.0,
        1.0
      ],
      "min": [
        -1.0,
        -1.0,
        -1.0
      ],
      "type": "VEC3"
    },
    {
      "bufferView": 1,
      "componentType": 5126,
      "count": 14946,
      "max": [
        1.0,
        1.0
      ],
      "min": [
        0.0,
        0.0
      ],
      "type": "VEC2"
    },
    {
      "bufferView": 0,
      "componentType": 5125,
      "count": 21672,
      "type": "SCALAR"
    },
    {
      "bufferView": 2,
      "byteOffset": 358704,
      "componentType": 5126,
      "count": 28650,
      "max": [
        737.0775756835938,
        189.73658752441406,
        536.2027587890625
      ],
      "min": [
        729.0905151367188,
        20.83429718017578,
        431.82379150390625
      ],
      "type": "VEC3"
    },
    {
      "bufferView": 2,
      "byteOffset": 702504,
      "componentType": 5126,
      "count": 28650,
      "max": [
        1.0,
        1.0,
        1.0
      ],
      "min": [
        -1.0,
        -1.0,
        -1.0
      ],
      "type": "VEC3"
    },
    {
      "bufferView": 3,
      "componentType": 5126,
      "count": 28650,
      "max": [
        1.0,
        0.6639106273651123,
        1.0,
        1.0
      ],
      "min": [
        -1.0,
        -1.0,
        -1.0,
        -1.0
      ],
      "type": "VEC4"
    },
    {
      "bufferView": 1,
      "byteOffset": 119568,
      "componentType": 5126,
      "count": 28650,
      "max": [
        1.0,
        1.0
      ],
      "min": [
        0.0,
        0.005624949932098389
      ],
      "type": "VEC2"
    },
    {
      "bufferView": 1,
      "byteOffset": 348768,
      "componentType": 5126,
      "count": 28650,
      "max": [
        1.0,
        1.0
      ],
      "min": [
        0.0,
        0.005624949932098389
      ],
      "type": "VEC2"
    },
    {
      "bufferView": 1,
      "byteOffset": 577968,
      "componentType": 5126,
      "count": 28650,
      "max": [
        1.0,
        1.0
      ],
      "min": [
        0.0,
        0.005624949932098389
      ],
      "type": "VEC2"
    },
    {
      "bufferView": 1,
      "byteOffset": 807168,
      "componentType": 5126,
      "count": 28650,
      "max": [
        1.0,
        1.0
      ],
      "min": [
        0.0,
        0.005624949932098389
      ],
      "type": "VEC2"
    },
    {
      "bufferView": 0,
      "byteOffset": 86688,
      "componentType": 5125,
      "count": 47196,
      "type": "SCALAR"
    }
  ],
  "asset": {
    "extras": {
      "author": "peoprint (https://sketchfab.com/peoprint)",
      "license": "CC-BY-4.0 (http://creativecommons.org/licenses/by/4.0/)",
      "source": "https://sketchfab.com/3d-models/best-player-2025-trophy-award-cup-for-3d-print-d23f2c8e0d414aea9971f3152cd54e9a",
      "title": "Best Player 2025 Trophy – Award Cup for 3D Print"
    },
    "generator": "Sketchfab-16.64.0",
    "version": "2.0"
  },
  "bufferViews": [
    {
      "buffer": 0,
      "byteLength": 275472,
      "name": "floatBufferViews",
      "target": 34963
    },
    {
      "buffer": 0,
      "byteLength": 1036368,
      "byteOffset": 275472,
      "byteStride": 8,
      "name": "floatBufferViews",
      "target": 34962
    },
    {
      "buffer": 0,
      "byteLength": 1046304,
      "byteOffset": 1311840,
      "byteStride": 12,
      "name": "floatBufferViews",
      "target": 34962
    },
    {
      "buffer": 0,
      "byteLength": 458400,
      "byteOffset": 2358144,
      "byteStride": 16,
      "name": "floatBufferViews",
      "target": 34962
    }
  ],
  "buffers": [
    {
      "byteLength": 2816544,
      "uri": "scene.bin"
    }
  ],
  "images": [
    {
      "uri": "textures/1111.037_baseColor.png"
    },
    {
      "uri": "textures/1111.037_metallicRoughness.png"
    },
    {
      "uri": "textures/1111.037_normal.png"
    }
  ],
  "materials": [
    {
      "doubleSided": true,
      "name": "1111.003",
      "pbrMetallicRoughness": {
        "baseColorFactor": [
          0.0170647,
          0.0159718,
          0.0159718,
          1.0
        ],
        "metallicFactor": 0.0,
        "roughnessFactor": 0.5
      }
    },
    {
      "doubleSided": true,
      "name": "1111.037",
      "normalTexture": {
        "index": 2
      },
      "pbrMetallicRoughness": {
        "baseColorTexture": {
          "index": 0
        },
        "metallicRoughnessTexture": {
          "index": 1
        }
      }
    }
  ],
  "meshes": [
    {
      "name": "Object_0",
      "primitives": [
        {
          "attributes": {
            "NORMAL": 1,
            "POSITION": 0,
            "TEXCOORD_0": 2
          },
          "indices": 3,
          "material": 0,
          "mode": 4
        }
      ]
    },
    {
      "name": "Object_1",
      "primitives": [
        {
          "attributes": {
            "NORMAL": 5,
            "POSITION": 4,
            "TANGENT": 6,
            "TEXCOORD_0": 7,
            "TEXCOORD_1": 8,
            "TEXCOORD_2": 9,
            "TEXCOORD_3": 10
          },
          "indices": 11,
          "material": 1,
          "mode": 4
        }
      ]
    }
  ],
  "nodes": [
    {
      "children": [
        1
      ],
      "matrix": [
        1.0,
        0.0,
        0.0,
        0.0,
        0.0,
        2.220446049250313e-16,
        -1.0,
        0.0,
        0.0,
        1.0,
        2.220446049250313e-16,
        0.0,
        0.0,
        0.0,
        0.0,
        1.0
      ],
      "name": "Sketchfab_model"
    },
    {
      "children": [
        2
      ],
      "name": "root"
    },
    {
      "children": [
        3,
        5
      ],
      "matrix": [
        1.0,
        0.0,
        0.0,
        0.0,
        0.0,
        2.220446049250313e-16,
        1.0,
        0.0,
        0.0,
        -1.0,
        2.220446049250313e-16,
        0.0,
        0.0,
        0.0,
        0.0,
        1.0
      ],
      "name": "GLTF_SceneRootNode"
    },
    {
      "children": [
        4
      ],
      "matrix": [
        1.0,
        0.0,
        0.0,
        0.0,
        0.0,
        1.0,
        0.0,
        0.0,
        0.0,
        0.0,
        1.0,
        0.0,
        285.59637451171875,
        0.0,
        105.80322265625,
        1.0
      ],
      "name": "player.002_0"
    },
    {
      "mesh": 0,
      "name": "Object_4"
    },
    {
      "children": [
        6
      ],
      "matrix": [
        1.0,
        0.0,
        0.0,
        0.0,
        0.0,
        1.0,
        0.0,
        0.0,
        0.0,
        0.0,
        1.0,
        0.0,
        -695.5971069335938,
        0.0,
        -481.1168212890625,
        1.0
      ],
      "name": "Cube.073_1"
    },
    {
      "mesh": 1,
      "name": "Object_6"
    }
  ],
  "samplers": [
    {
      "magFilter": 9729,
      "minFilter": 9987,
      "wrapS": 10497,
      "wrapT": 10497
    }
  ],
  "scene": 0,
  "scenes": [
    {
      "name": "Sketchfab_Scene",
      "nodes": [
        0
      ]
    }
  ],
  "textures": [
    {
      "sampler": 0,
      "source": 0
    },
    {
      "sampler": 0,
      "source": 1
    },
    {
      "sampler": 0,
      "source": 2
    }
  ]
}
