# Blender v2.83.4 OBJ File: 'Appliance.blend'
# www.blender.org
mtllib WallTv.mtl
o WallTV_Cube.009
v 0.077316 0.114343 0.070884
v 0.077316 1.065282 0.070884
v 0.088375 0.125403 0.031579
v 0.088375 1.054222 0.031579
v 1.744063 0.114343 0.070884
v 1.744063 1.065282 0.070884
v 1.733003 0.125403 0.031579
v 1.733003 1.054222 0.031579
v 0.036658 0.073686 0.070884
v 0.036658 1.105939 0.070884
v 1.784720 1.105939 0.070884
v 1.784720 0.073686 0.070884
v 0.077316 0.114343 0.056396
v 0.077316 1.065282 0.056396
v 1.744063 1.065282 0.056396
v 1.744063 0.114343 0.056396
v 0.823497 0.056448 0.065984
v 0.803307 0.074313 0.066457
v 0.820018 0.047271 0.047499
v 0.779085 0.083490 0.046541
v 1.000572 0.056448 0.065984
v 1.019340 0.074313 0.066457
v 1.004243 0.047271 0.047499
v 1.042293 0.083490 0.046541
v 0.820018 0.047271 0.065741
v 0.779085 0.083490 0.066700
v 1.042293 0.083490 0.066700
v 1.004243 0.047271 0.065741
v 0.823497 0.056582 0.060937
v 0.803307 0.074447 0.061410
v 1.019340 0.074447 0.061410
v 1.000572 0.056582 0.060937
v 0.036658 1.105939 0.041681
v 0.036658 0.073686 0.041681
v 1.784720 0.073686 0.041681
v 1.784720 1.105939 0.041681
vt 0.814980 0.923255
vt 0.814980 0.923255
vt 0.814980 0.923255
vt 0.814980 0.923255
vt 0.814980 0.923255
vt 0.814980 0.923255
vt 0.814980 0.923255
vt 0.814980 0.923255
vt 0.814980 0.923255
vt 0.814980 0.923255
vt 0.814980 0.923255
vt 0.814980 0.923255
vt 0.814980 0.923255
vt 0.814980 0.923255
vt 0.814980 0.923255
vt 0.814980 0.923255
vt 0.814980 0.923255
vt 0.814980 0.923255
vt 0.952784 0.923255
vt 0.952784 0.923255
vt 0.952784 0.923255
vt 0.952784 0.923255
vt 0.814980 0.923255
vt 0.814980 0.923255
vt 0.844510 0.952784
vt 0.844510 0.952784
vt 0.844510 0.952784
vt 0.844510 0.952784
vt 0.844510 0.952784
vt 0.844510 0.952784
vt 0.844510 0.952784
vt 0.844510 0.952784
vt 0.844510 0.952784
vt 0.844510 0.952784
vt 0.844510 0.952784
vt 0.844510 0.952784
vt 0.844510 0.952784
vt 0.844510 0.952784
vt 0.696863 0.942941
vt 0.696863 0.942941
vt 0.696863 0.942941
vt 0.696863 0.942941
vt 0.844510 0.952784
vt 0.844510 0.952784
vn -1.0000 0.0000 0.0000
vn 0.0000 0.0000 -1.0000
vn 1.0000 0.0000 0.0000
vn 0.0000 1.0000 0.0000
vn 0.0000 -1.0000 0.0000
vn -0.0000 0.0000 1.0000
vn -0.6627 -0.7489 0.0000
vn 0.0000 -0.0265 -0.9996
vn 0.6895 -0.7243 0.0000
vn 0.0000 0.9996 0.0265
vn -0.0000 -0.0265 0.9996
vn 0.0000 -0.0265 0.9997
vn 0.6628 0.7485 0.0198
vn 0.0000 -0.9997 -0.0265
vn -0.6896 0.7239 0.0192
vn -0.1917 0.0000 -0.9815
vn 0.0000 -0.1917 -0.9815
vn 0.0000 0.1917 -0.9815
vn 0.1917 0.0000 -0.9815
usemtl 8x8
s off
f 9/1/1 10/2/1 33/3/1 34/4/1
f 3/5/2 4/6/2 8/7/2 7/8/2
f 35/9/3 36/10/3 11/11/3 12/12/3
f 1/13/4 5/14/4 16/15/4 13/16/4
f 34/4/5 35/9/5 12/12/5 9/1/5
f 36/10/4 33/3/4 10/2/4 11/11/4
f 1/13/6 2/17/6 10/2/6 9/1/6
f 6/18/6 5/14/6 12/12/6 11/11/6
f 5/14/6 1/13/6 9/1/6 12/12/6
f 2/17/6 6/18/6 11/11/6 10/2/6
f 16/19/6 15/20/6 14/21/6 13/22/6
f 2/17/3 1/13/3 13/16/3 14/23/3
f 6/18/5 2/17/5 14/23/5 15/24/5
f 5/14/1 6/18/1 15/24/1 16/15/1
f 25/25/7 26/26/7 20/27/7 19/28/7
f 19/28/8 20/27/8 24/29/8 23/30/8
f 23/30/9 24/29/9 27/31/9 28/32/9
f 17/33/10 21/34/10 32/35/10 29/36/10
f 19/28/5 23/30/5 28/32/5 25/25/5
f 24/29/4 20/27/4 26/26/4 27/31/4
f 17/33/11 18/37/11 26/26/11 25/25/11
f 22/38/11 21/34/11 28/32/11 27/31/11
f 21/34/12 17/33/12 25/25/12 28/32/12
f 18/37/12 22/38/12 27/31/12 26/26/12
f 32/39/12 31/40/12 30/41/12 29/42/12
f 18/37/13 17/33/13 29/36/13 30/43/13
f 22/38/14 18/37/14 30/43/14 31/44/14
f 21/34/15 22/38/15 31/44/15 32/35/15
f 4/6/16 3/5/16 34/4/16 33/3/16
f 3/5/17 7/8/17 35/9/17 34/4/17
f 8/7/18 4/6/18 33/3/18 36/10/18
f 7/8/19 8/7/19 36/10/19 35/9/19
